<mxfile host="app.diagrams.net" agent="Mozilla/5.0 (Windows NT 10.0; Win64; x64) AppleWebKit/537.36 (KHTML, like Gecko) Chrome/136.0.0.0 Safari/537.36" version="26.2.13" pages="5">
  <diagram name="Page-1" id="hpRTOgfdTzSHyHEXYIqq">
    <mxGraphModel dx="2282" dy="1020" grid="1" gridSize="10" guides="1" tooltips="1" connect="1" arrows="1" fold="1" page="1" pageScale="1" pageWidth="2100" pageHeight="1000" math="0" shadow="0">
      <root>
        <mxCell id="0" />
        <mxCell id="1" parent="0" />
        <mxCell id="55dYvzT4WNxSjNeaTjEU-12" style="edgeStyle=orthogonalEdgeStyle;rounded=0;orthogonalLoop=1;jettySize=auto;html=1;exitX=0.996;exitY=0.612;exitDx=0;exitDy=0;entryX=0;entryY=0.75;entryDx=0;entryDy=0;exitPerimeter=0;" edge="1" parent="1" source="55dYvzT4WNxSjNeaTjEU-1" target="55dYvzT4WNxSjNeaTjEU-5">
          <mxGeometry relative="1" as="geometry" />
        </mxCell>
        <mxCell id="55dYvzT4WNxSjNeaTjEU-13" value="Rekap Absensi" style="edgeLabel;html=1;align=center;verticalAlign=middle;resizable=0;points=[];" vertex="1" connectable="0" parent="55dYvzT4WNxSjNeaTjEU-12">
          <mxGeometry x="-0.2372" relative="1" as="geometry">
            <mxPoint as="offset" />
          </mxGeometry>
        </mxCell>
        <mxCell id="55dYvzT4WNxSjNeaTjEU-15" style="edgeStyle=orthogonalEdgeStyle;rounded=0;orthogonalLoop=1;jettySize=auto;html=1;exitX=0.394;exitY=0.993;exitDx=0;exitDy=0;entryX=1;entryY=0.25;entryDx=0;entryDy=0;exitPerimeter=0;" edge="1" parent="1" source="55dYvzT4WNxSjNeaTjEU-1" target="55dYvzT4WNxSjNeaTjEU-4">
          <mxGeometry relative="1" as="geometry">
            <Array as="points">
              <mxPoint x="1024" y="608" />
            </Array>
          </mxGeometry>
        </mxCell>
        <mxCell id="55dYvzT4WNxSjNeaTjEU-17" value="Data Akun Mahasiswa" style="edgeLabel;html=1;align=center;verticalAlign=middle;resizable=0;points=[];" vertex="1" connectable="0" parent="55dYvzT4WNxSjNeaTjEU-15">
          <mxGeometry x="-0.0343" y="-1" relative="1" as="geometry">
            <mxPoint as="offset" />
          </mxGeometry>
        </mxCell>
        <mxCell id="55dYvzT4WNxSjNeaTjEU-19" style="edgeStyle=orthogonalEdgeStyle;rounded=0;orthogonalLoop=1;jettySize=auto;html=1;entryX=1;entryY=0.75;entryDx=0;entryDy=0;exitX=0.603;exitY=0.978;exitDx=0;exitDy=0;exitPerimeter=0;" edge="1" parent="1" source="55dYvzT4WNxSjNeaTjEU-1" target="55dYvzT4WNxSjNeaTjEU-4">
          <mxGeometry relative="1" as="geometry">
            <Array as="points">
              <mxPoint x="1076" y="663" />
              <mxPoint x="1066" y="663" />
            </Array>
          </mxGeometry>
        </mxCell>
        <mxCell id="55dYvzT4WNxSjNeaTjEU-20" value="Data Absensi" style="edgeLabel;html=1;align=center;verticalAlign=middle;resizable=0;points=[];" vertex="1" connectable="0" parent="55dYvzT4WNxSjNeaTjEU-19">
          <mxGeometry x="0.0739" y="3" relative="1" as="geometry">
            <mxPoint as="offset" />
          </mxGeometry>
        </mxCell>
        <mxCell id="55dYvzT4WNxSjNeaTjEU-1" value="0&lt;div&gt;Sistem Absensi Mahasiswa Berbasis QR Code&lt;/div&gt;" style="ellipse;whiteSpace=wrap;html=1;aspect=fixed;" vertex="1" parent="1">
          <mxGeometry x="925" y="300" width="250" height="250" as="geometry" />
        </mxCell>
        <mxCell id="55dYvzT4WNxSjNeaTjEU-3" style="edgeStyle=orthogonalEdgeStyle;rounded=0;orthogonalLoop=1;jettySize=auto;html=1;entryX=-0.002;entryY=0.444;entryDx=0;entryDy=0;entryPerimeter=0;exitX=0.5;exitY=1;exitDx=0;exitDy=0;" edge="1" parent="1" source="55dYvzT4WNxSjNeaTjEU-2" target="55dYvzT4WNxSjNeaTjEU-1">
          <mxGeometry relative="1" as="geometry">
            <Array as="points">
              <mxPoint x="525" y="410" />
              <mxPoint x="780" y="410" />
            </Array>
          </mxGeometry>
        </mxCell>
        <mxCell id="55dYvzT4WNxSjNeaTjEU-8" value="Absensi" style="edgeLabel;html=1;align=center;verticalAlign=middle;resizable=0;points=[];" vertex="1" connectable="0" parent="55dYvzT4WNxSjNeaTjEU-3">
          <mxGeometry x="-0.2791" y="4" relative="1" as="geometry">
            <mxPoint as="offset" />
          </mxGeometry>
        </mxCell>
        <mxCell id="55dYvzT4WNxSjNeaTjEU-2" value="Mahasiswa" style="rounded=0;whiteSpace=wrap;html=1;" vertex="1" parent="1">
          <mxGeometry x="460" y="281" width="130" height="110" as="geometry" />
        </mxCell>
        <mxCell id="55dYvzT4WNxSjNeaTjEU-7" style="edgeStyle=orthogonalEdgeStyle;rounded=0;orthogonalLoop=1;jettySize=auto;html=1;entryX=0.5;entryY=1;entryDx=0;entryDy=0;" edge="1" parent="1" source="55dYvzT4WNxSjNeaTjEU-4" target="55dYvzT4WNxSjNeaTjEU-1">
          <mxGeometry relative="1" as="geometry" />
        </mxCell>
        <mxCell id="55dYvzT4WNxSjNeaTjEU-14" value="Pengelolaan Sistem" style="edgeLabel;html=1;align=center;verticalAlign=middle;resizable=0;points=[];" vertex="1" connectable="0" parent="55dYvzT4WNxSjNeaTjEU-7">
          <mxGeometry x="-0.4254" y="-2" relative="1" as="geometry">
            <mxPoint as="offset" />
          </mxGeometry>
        </mxCell>
        <mxCell id="55dYvzT4WNxSjNeaTjEU-4" value="Admin" style="rounded=0;whiteSpace=wrap;html=1;" vertex="1" parent="1">
          <mxGeometry x="620" y="580" width="130" height="110" as="geometry" />
        </mxCell>
        <mxCell id="55dYvzT4WNxSjNeaTjEU-6" style="edgeStyle=orthogonalEdgeStyle;rounded=0;orthogonalLoop=1;jettySize=auto;html=1;" edge="1" parent="1" source="55dYvzT4WNxSjNeaTjEU-5" target="55dYvzT4WNxSjNeaTjEU-1">
          <mxGeometry relative="1" as="geometry" />
        </mxCell>
        <mxCell id="55dYvzT4WNxSjNeaTjEU-11" value="Request QR" style="edgeLabel;html=1;align=center;verticalAlign=middle;resizable=0;points=[];" vertex="1" connectable="0" parent="55dYvzT4WNxSjNeaTjEU-6">
          <mxGeometry x="0.1805" y="2" relative="1" as="geometry">
            <mxPoint as="offset" />
          </mxGeometry>
        </mxCell>
        <mxCell id="55dYvzT4WNxSjNeaTjEU-5" value="Dosen" style="rounded=0;whiteSpace=wrap;html=1;" vertex="1" parent="1">
          <mxGeometry x="1450" y="370" width="130" height="110" as="geometry" />
        </mxCell>
        <mxCell id="55dYvzT4WNxSjNeaTjEU-9" style="edgeStyle=orthogonalEdgeStyle;rounded=0;orthogonalLoop=1;jettySize=auto;html=1;entryX=0.334;entryY=1.003;entryDx=0;entryDy=0;entryPerimeter=0;" edge="1" parent="1" source="55dYvzT4WNxSjNeaTjEU-1" target="55dYvzT4WNxSjNeaTjEU-2">
          <mxGeometry relative="1" as="geometry" />
        </mxCell>
        <mxCell id="55dYvzT4WNxSjNeaTjEU-10" value="Informasi Akun" style="edgeLabel;html=1;align=center;verticalAlign=middle;resizable=0;points=[];" vertex="1" connectable="0" parent="55dYvzT4WNxSjNeaTjEU-9">
          <mxGeometry x="-0.0013" relative="1" as="geometry">
            <mxPoint as="offset" />
          </mxGeometry>
        </mxCell>
      </root>
    </mxGraphModel>
  </diagram>
  <diagram id="bek-3YGVap80cmLNho9s" name="Page-2">
    <mxGraphModel dx="1580" dy="706" grid="1" gridSize="10" guides="1" tooltips="1" connect="1" arrows="1" fold="1" page="1" pageScale="1" pageWidth="2100" pageHeight="1000" math="0" shadow="0">
      <root>
        <mxCell id="0" />
        <mxCell id="1" parent="0" />
        <mxCell id="RcCv5aFrzid7gCHHWIB_-28" style="edgeStyle=orthogonalEdgeStyle;rounded=0;orthogonalLoop=1;jettySize=auto;html=1;entryX=0;entryY=0.5;entryDx=0;entryDy=0;" edge="1" parent="1" source="RcCv5aFrzid7gCHHWIB_-9" target="RcCv5aFrzid7gCHHWIB_-25">
          <mxGeometry relative="1" as="geometry" />
        </mxCell>
        <mxCell id="RcCv5aFrzid7gCHHWIB_-29" value="Data login" style="edgeLabel;html=1;align=center;verticalAlign=middle;resizable=0;points=[];" vertex="1" connectable="0" parent="RcCv5aFrzid7gCHHWIB_-28">
          <mxGeometry x="-0.2815" y="-2" relative="1" as="geometry">
            <mxPoint as="offset" />
          </mxGeometry>
        </mxCell>
        <mxCell id="RcCv5aFrzid7gCHHWIB_-9" value="1&lt;div&gt;Login Akun Mahasiswa&lt;/div&gt;" style="ellipse;whiteSpace=wrap;html=1;aspect=fixed;" vertex="1" parent="1">
          <mxGeometry x="850" y="120" width="250" height="250" as="geometry" />
        </mxCell>
        <mxCell id="RcCv5aFrzid7gCHHWIB_-22" style="edgeStyle=orthogonalEdgeStyle;rounded=0;orthogonalLoop=1;jettySize=auto;html=1;" edge="1" parent="1" source="RcCv5aFrzid7gCHHWIB_-12" target="RcCv5aFrzid7gCHHWIB_-9">
          <mxGeometry relative="1" as="geometry" />
        </mxCell>
        <mxCell id="RcCv5aFrzid7gCHHWIB_-23" value="data Login" style="edgeLabel;html=1;align=center;verticalAlign=middle;resizable=0;points=[];" vertex="1" connectable="0" parent="RcCv5aFrzid7gCHHWIB_-22">
          <mxGeometry x="-0.3359" y="-3" relative="1" as="geometry">
            <mxPoint as="offset" />
          </mxGeometry>
        </mxCell>
        <mxCell id="RcCv5aFrzid7gCHHWIB_-36" style="edgeStyle=orthogonalEdgeStyle;rounded=0;orthogonalLoop=1;jettySize=auto;html=1;" edge="1" parent="1" source="RcCv5aFrzid7gCHHWIB_-12" target="RcCv5aFrzid7gCHHWIB_-21">
          <mxGeometry relative="1" as="geometry">
            <Array as="points">
              <mxPoint x="525" y="410" />
              <mxPoint x="975" y="410" />
            </Array>
          </mxGeometry>
        </mxCell>
        <mxCell id="RcCv5aFrzid7gCHHWIB_-37" value="Mengisi absensi" style="edgeLabel;html=1;align=center;verticalAlign=middle;resizable=0;points=[];" vertex="1" connectable="0" parent="RcCv5aFrzid7gCHHWIB_-36">
          <mxGeometry x="0.1436" y="1" relative="1" as="geometry">
            <mxPoint as="offset" />
          </mxGeometry>
        </mxCell>
        <mxCell id="RcCv5aFrzid7gCHHWIB_-12" value="Mahasiswa" style="rounded=0;whiteSpace=wrap;html=1;" vertex="1" parent="1">
          <mxGeometry x="460" y="190" width="130" height="110" as="geometry" />
        </mxCell>
        <mxCell id="o4DhKE3tRqgrb3BiqJUr-3" style="edgeStyle=orthogonalEdgeStyle;rounded=0;orthogonalLoop=1;jettySize=auto;html=1;entryX=1;entryY=0;entryDx=0;entryDy=0;" edge="1" parent="1" source="RcCv5aFrzid7gCHHWIB_-15" target="RcCv5aFrzid7gCHHWIB_-21">
          <mxGeometry relative="1" as="geometry">
            <Array as="points">
              <mxPoint x="1190" y="465" />
              <mxPoint x="1190" y="527" />
            </Array>
          </mxGeometry>
        </mxCell>
        <mxCell id="o4DhKE3tRqgrb3BiqJUr-4" value="Kelola absensi" style="edgeLabel;html=1;align=center;verticalAlign=middle;resizable=0;points=[];" vertex="1" connectable="0" parent="o4DhKE3tRqgrb3BiqJUr-3">
          <mxGeometry x="-0.4089" y="-1" relative="1" as="geometry">
            <mxPoint x="-110" y="1" as="offset" />
          </mxGeometry>
        </mxCell>
        <mxCell id="RcCv5aFrzid7gCHHWIB_-15" value="Admin" style="rounded=0;whiteSpace=wrap;html=1;" vertex="1" parent="1">
          <mxGeometry x="1610" y="410" width="130" height="110" as="geometry" />
        </mxCell>
        <mxCell id="RcCv5aFrzid7gCHHWIB_-38" style="edgeStyle=orthogonalEdgeStyle;rounded=0;orthogonalLoop=1;jettySize=auto;html=1;" edge="1" parent="1" source="RcCv5aFrzid7gCHHWIB_-18" target="RcCv5aFrzid7gCHHWIB_-21">
          <mxGeometry relative="1" as="geometry" />
        </mxCell>
        <mxCell id="RcCv5aFrzid7gCHHWIB_-39" value="Request qr" style="edgeLabel;html=1;align=center;verticalAlign=middle;resizable=0;points=[];" vertex="1" connectable="0" parent="RcCv5aFrzid7gCHHWIB_-38">
          <mxGeometry x="0.5349" y="-1" relative="1" as="geometry">
            <mxPoint x="-1" as="offset" />
          </mxGeometry>
        </mxCell>
        <mxCell id="RcCv5aFrzid7gCHHWIB_-18" value="Dosen" style="rounded=0;whiteSpace=wrap;html=1;" vertex="1" parent="1">
          <mxGeometry x="460" y="590" width="130" height="110" as="geometry" />
        </mxCell>
        <mxCell id="RcCv5aFrzid7gCHHWIB_-42" style="edgeStyle=orthogonalEdgeStyle;rounded=0;orthogonalLoop=1;jettySize=auto;html=1;entryX=0;entryY=0.5;entryDx=0;entryDy=0;" edge="1" parent="1" source="RcCv5aFrzid7gCHHWIB_-21" target="RcCv5aFrzid7gCHHWIB_-40">
          <mxGeometry relative="1" as="geometry" />
        </mxCell>
        <mxCell id="RcCv5aFrzid7gCHHWIB_-43" value="data absensi" style="edgeLabel;html=1;align=center;verticalAlign=middle;resizable=0;points=[];" vertex="1" connectable="0" parent="RcCv5aFrzid7gCHHWIB_-42">
          <mxGeometry x="-0.2459" y="-1" relative="1" as="geometry">
            <mxPoint x="-1" as="offset" />
          </mxGeometry>
        </mxCell>
        <mxCell id="RcCv5aFrzid7gCHHWIB_-21" value="2&lt;div&gt;Absensi&lt;/div&gt;" style="ellipse;whiteSpace=wrap;html=1;aspect=fixed;" vertex="1" parent="1">
          <mxGeometry x="850" y="490" width="250" height="250" as="geometry" />
        </mxCell>
        <mxCell id="RcCv5aFrzid7gCHHWIB_-32" style="edgeStyle=orthogonalEdgeStyle;rounded=0;orthogonalLoop=1;jettySize=auto;html=1;entryX=0.5;entryY=0;entryDx=0;entryDy=0;" edge="1" parent="1" source="RcCv5aFrzid7gCHHWIB_-25" target="RcCv5aFrzid7gCHHWIB_-15">
          <mxGeometry relative="1" as="geometry" />
        </mxCell>
        <mxCell id="RcCv5aFrzid7gCHHWIB_-33" value="Data akun&lt;div&gt;mahasiswa&lt;/div&gt;" style="edgeLabel;html=1;align=center;verticalAlign=middle;resizable=0;points=[];" vertex="1" connectable="0" parent="RcCv5aFrzid7gCHHWIB_-32">
          <mxGeometry x="-0.4276" y="-2" relative="1" as="geometry">
            <mxPoint as="offset" />
          </mxGeometry>
        </mxCell>
        <mxCell id="RcCv5aFrzid7gCHHWIB_-25" value="" style="swimlane;horizontal=0;whiteSpace=wrap;html=1;" vertex="1" parent="1">
          <mxGeometry x="1350" y="210" width="180" height="70" as="geometry" />
        </mxCell>
        <mxCell id="RcCv5aFrzid7gCHHWIB_-26" value="Akun_mahasiswa" style="text;html=1;align=center;verticalAlign=middle;resizable=0;points=[];autosize=1;strokeColor=none;fillColor=none;" vertex="1" parent="RcCv5aFrzid7gCHHWIB_-25">
          <mxGeometry x="40" y="20" width="120" height="30" as="geometry" />
        </mxCell>
        <mxCell id="RcCv5aFrzid7gCHHWIB_-30" style="edgeStyle=orthogonalEdgeStyle;rounded=0;orthogonalLoop=1;jettySize=auto;html=1;entryX=0.995;entryY=0.573;entryDx=0;entryDy=0;entryPerimeter=0;exitX=0;exitY=0.75;exitDx=0;exitDy=0;" edge="1" parent="1" source="RcCv5aFrzid7gCHHWIB_-25" target="RcCv5aFrzid7gCHHWIB_-9">
          <mxGeometry relative="1" as="geometry" />
        </mxCell>
        <mxCell id="RcCv5aFrzid7gCHHWIB_-31" value="Info login" style="edgeLabel;html=1;align=center;verticalAlign=middle;resizable=0;points=[];" vertex="1" connectable="0" parent="RcCv5aFrzid7gCHHWIB_-30">
          <mxGeometry x="-0.1369" y="-1" relative="1" as="geometry">
            <mxPoint as="offset" />
          </mxGeometry>
        </mxCell>
        <mxCell id="RcCv5aFrzid7gCHHWIB_-34" style="edgeStyle=orthogonalEdgeStyle;rounded=0;orthogonalLoop=1;jettySize=auto;html=1;entryX=0.5;entryY=0;entryDx=0;entryDy=0;exitX=0.75;exitY=0;exitDx=0;exitDy=0;" edge="1" parent="1" source="RcCv5aFrzid7gCHHWIB_-15" target="RcCv5aFrzid7gCHHWIB_-25">
          <mxGeometry relative="1" as="geometry">
            <Array as="points">
              <mxPoint x="1708" y="165" />
              <mxPoint x="1440" y="165" />
            </Array>
          </mxGeometry>
        </mxCell>
        <mxCell id="RcCv5aFrzid7gCHHWIB_-35" value="Kelola akun mahasiswa" style="edgeLabel;html=1;align=center;verticalAlign=middle;resizable=0;points=[];" vertex="1" connectable="0" parent="RcCv5aFrzid7gCHHWIB_-34">
          <mxGeometry x="0.1216" y="1" relative="1" as="geometry">
            <mxPoint x="-1" as="offset" />
          </mxGeometry>
        </mxCell>
        <mxCell id="RcCv5aFrzid7gCHHWIB_-44" style="edgeStyle=orthogonalEdgeStyle;rounded=0;orthogonalLoop=1;jettySize=auto;html=1;entryX=0.5;entryY=1;entryDx=0;entryDy=0;" edge="1" parent="1" source="RcCv5aFrzid7gCHHWIB_-40" target="RcCv5aFrzid7gCHHWIB_-18">
          <mxGeometry relative="1" as="geometry">
            <Array as="points">
              <mxPoint x="1360" y="800" />
              <mxPoint x="525" y="800" />
            </Array>
          </mxGeometry>
        </mxCell>
        <mxCell id="o4DhKE3tRqgrb3BiqJUr-1" value="Rekap absensi" style="edgeLabel;html=1;align=center;verticalAlign=middle;resizable=0;points=[];" vertex="1" connectable="0" parent="RcCv5aFrzid7gCHHWIB_-44">
          <mxGeometry x="0.0205" y="-4" relative="1" as="geometry">
            <mxPoint as="offset" />
          </mxGeometry>
        </mxCell>
        <mxCell id="1L9mWUL49SWg34cbCBVv-1" style="edgeStyle=orthogonalEdgeStyle;rounded=0;orthogonalLoop=1;jettySize=auto;html=1;entryX=0.75;entryY=1;entryDx=0;entryDy=0;" edge="1" parent="1" target="RcCv5aFrzid7gCHHWIB_-25">
          <mxGeometry relative="1" as="geometry">
            <mxPoint x="1430" y="580" as="sourcePoint" />
          </mxGeometry>
        </mxCell>
        <mxCell id="1L9mWUL49SWg34cbCBVv-2" value="data&amp;nbsp;&lt;div&gt;absensi&lt;/div&gt;" style="edgeLabel;html=1;align=center;verticalAlign=middle;resizable=0;points=[];" vertex="1" connectable="0" parent="1L9mWUL49SWg34cbCBVv-1">
          <mxGeometry x="0.4727" relative="1" as="geometry">
            <mxPoint as="offset" />
          </mxGeometry>
        </mxCell>
        <mxCell id="RcCv5aFrzid7gCHHWIB_-40" value="" style="swimlane;horizontal=0;whiteSpace=wrap;html=1;" vertex="1" parent="1">
          <mxGeometry x="1270" y="580" width="180" height="70" as="geometry" />
        </mxCell>
        <mxCell id="RcCv5aFrzid7gCHHWIB_-41" value="data_absensi" style="text;html=1;align=center;verticalAlign=middle;resizable=0;points=[];autosize=1;strokeColor=none;fillColor=none;" vertex="1" parent="RcCv5aFrzid7gCHHWIB_-40">
          <mxGeometry x="55" y="20" width="90" height="30" as="geometry" />
        </mxCell>
        <mxCell id="o4DhKE3tRqgrb3BiqJUr-2" style="edgeStyle=orthogonalEdgeStyle;rounded=0;orthogonalLoop=1;jettySize=auto;html=1;entryX=0.598;entryY=0.992;entryDx=0;entryDy=0;entryPerimeter=0;" edge="1" parent="1" source="RcCv5aFrzid7gCHHWIB_-40" target="RcCv5aFrzid7gCHHWIB_-15">
          <mxGeometry relative="1" as="geometry" />
        </mxCell>
        <mxCell id="o4DhKE3tRqgrb3BiqJUr-5" value="data absensi mahasiswa" style="edgeLabel;html=1;align=center;verticalAlign=middle;resizable=0;points=[];" vertex="1" connectable="0" parent="o4DhKE3tRqgrb3BiqJUr-2">
          <mxGeometry x="-0.3806" y="4" relative="1" as="geometry">
            <mxPoint as="offset" />
          </mxGeometry>
        </mxCell>
      </root>
    </mxGraphModel>
  </diagram>
  <diagram id="9B0ZaeyB6uow9_o2eRcf" name="Page-3">
    <mxGraphModel dx="1467" dy="656" grid="1" gridSize="10" guides="1" tooltips="1" connect="1" arrows="1" fold="1" page="1" pageScale="1" pageWidth="2100" pageHeight="1000" math="0" shadow="0">
      <root>
        <mxCell id="0" />
        <mxCell id="1" parent="0" />
        <mxCell id="9P8PGXi3Jgs_4HarJCBv-1" style="edgeStyle=orthogonalEdgeStyle;rounded=0;orthogonalLoop=1;jettySize=auto;html=1;entryX=0;entryY=0.5;entryDx=0;entryDy=0;" edge="1" parent="1" source="KuFRIA4SbUAyBWobRCL_-25" target="KjFhffDNLPdM9jSf3J92-1">
          <mxGeometry relative="1" as="geometry" />
        </mxCell>
        <mxCell id="9P8PGXi3Jgs_4HarJCBv-3" value="Data registrasi" style="edgeLabel;html=1;align=center;verticalAlign=middle;resizable=0;points=[];" vertex="1" connectable="0" parent="9P8PGXi3Jgs_4HarJCBv-1">
          <mxGeometry x="-0.069" y="2" relative="1" as="geometry">
            <mxPoint as="offset" />
          </mxGeometry>
        </mxCell>
        <mxCell id="9P8PGXi3Jgs_4HarJCBv-5" style="edgeStyle=orthogonalEdgeStyle;rounded=0;orthogonalLoop=1;jettySize=auto;html=1;entryX=0.5;entryY=0;entryDx=0;entryDy=0;" edge="1" parent="1" source="KuFRIA4SbUAyBWobRCL_-25" target="ShQfBIvye3-BGlphU4lf-1">
          <mxGeometry relative="1" as="geometry" />
        </mxCell>
        <mxCell id="KuFRIA4SbUAyBWobRCL_-25" value="1.1&lt;br&gt;&lt;div&gt;Registrasi Akun&lt;/div&gt;" style="ellipse;whiteSpace=wrap;html=1;aspect=fixed;" vertex="1" parent="1">
          <mxGeometry x="870" y="221" width="250" height="250" as="geometry" />
        </mxCell>
        <mxCell id="udOfU7A_o6pt-9V_JLOv-2" style="edgeStyle=orthogonalEdgeStyle;rounded=0;orthogonalLoop=1;jettySize=auto;html=1;" edge="1" parent="1" source="KuFRIA4SbUAyBWobRCL_-28" target="KuFRIA4SbUAyBWobRCL_-25">
          <mxGeometry relative="1" as="geometry" />
        </mxCell>
        <mxCell id="udOfU7A_o6pt-9V_JLOv-3" value="Informasi Daftar akun" style="edgeLabel;html=1;align=center;verticalAlign=middle;resizable=0;points=[];" vertex="1" connectable="0" parent="udOfU7A_o6pt-9V_JLOv-2">
          <mxGeometry x="-0.3004" y="1" relative="1" as="geometry">
            <mxPoint x="-1" as="offset" />
          </mxGeometry>
        </mxCell>
        <mxCell id="KuFRIA4SbUAyBWobRCL_-28" value="Mahasiswa" style="rounded=0;whiteSpace=wrap;html=1;" vertex="1" parent="1">
          <mxGeometry x="490" y="291" width="130" height="110" as="geometry" />
        </mxCell>
        <mxCell id="KuFRIA4SbUAyBWobRCL_-31" value="Admin" style="rounded=0;whiteSpace=wrap;html=1;" vertex="1" parent="1">
          <mxGeometry x="1490" y="640" width="130" height="110" as="geometry" />
        </mxCell>
        <mxCell id="9P8PGXi3Jgs_4HarJCBv-6" style="edgeStyle=orthogonalEdgeStyle;rounded=0;orthogonalLoop=1;jettySize=auto;html=1;entryX=0.25;entryY=1;entryDx=0;entryDy=0;" edge="1" parent="1" source="ShQfBIvye3-BGlphU4lf-1" target="KjFhffDNLPdM9jSf3J92-1">
          <mxGeometry relative="1" as="geometry" />
        </mxCell>
        <mxCell id="9P8PGXi3Jgs_4HarJCBv-7" value="Data akun" style="edgeLabel;html=1;align=center;verticalAlign=middle;resizable=0;points=[];" vertex="1" connectable="0" parent="9P8PGXi3Jgs_4HarJCBv-6">
          <mxGeometry x="0.5" y="-2" relative="1" as="geometry">
            <mxPoint as="offset" />
          </mxGeometry>
        </mxCell>
        <mxCell id="ShQfBIvye3-BGlphU4lf-1" value="1.2&lt;div&gt;Login Akun&lt;/div&gt;" style="ellipse;whiteSpace=wrap;html=1;aspect=fixed;" vertex="1" parent="1">
          <mxGeometry x="870" y="570" width="250" height="250" as="geometry" />
        </mxCell>
        <mxCell id="udOfU7A_o6pt-9V_JLOv-1" style="edgeStyle=orthogonalEdgeStyle;rounded=0;orthogonalLoop=1;jettySize=auto;html=1;exitX=0.5;exitY=1;exitDx=0;exitDy=0;" edge="1" parent="1" source="KuFRIA4SbUAyBWobRCL_-28" target="KuFRIA4SbUAyBWobRCL_-28">
          <mxGeometry relative="1" as="geometry" />
        </mxCell>
        <mxCell id="6wOzUBB-7l4437vv8n59-1" style="edgeStyle=orthogonalEdgeStyle;rounded=0;orthogonalLoop=1;jettySize=auto;html=1;entryX=0.25;entryY=0;entryDx=0;entryDy=0;" edge="1" parent="1" source="KjFhffDNLPdM9jSf3J92-1" target="KuFRIA4SbUAyBWobRCL_-31">
          <mxGeometry relative="1" as="geometry" />
        </mxCell>
        <mxCell id="vEc57txLKFS5UoqtOkP9-1" value="Data akun&lt;div&gt;mahasiswa&lt;/div&gt;" style="edgeLabel;html=1;align=center;verticalAlign=middle;resizable=0;points=[];" vertex="1" connectable="0" parent="6wOzUBB-7l4437vv8n59-1">
          <mxGeometry x="0.2589" y="-1" relative="1" as="geometry">
            <mxPoint as="offset" />
          </mxGeometry>
        </mxCell>
        <mxCell id="vEc57txLKFS5UoqtOkP9-2" style="edgeStyle=orthogonalEdgeStyle;rounded=0;orthogonalLoop=1;jettySize=auto;html=1;entryX=0.75;entryY=0;entryDx=0;entryDy=0;exitX=1;exitY=0.25;exitDx=0;exitDy=0;" edge="1" parent="1" source="KjFhffDNLPdM9jSf3J92-1" target="KuFRIA4SbUAyBWobRCL_-31">
          <mxGeometry relative="1" as="geometry" />
        </mxCell>
        <mxCell id="vEc57txLKFS5UoqtOkP9-3" value="Kelola akun&lt;div&gt;mahasiswa&lt;/div&gt;" style="edgeLabel;html=1;align=center;verticalAlign=middle;resizable=0;points=[];" vertex="1" connectable="0" parent="vEc57txLKFS5UoqtOkP9-2">
          <mxGeometry x="0.0608" y="-2" relative="1" as="geometry">
            <mxPoint y="-1" as="offset" />
          </mxGeometry>
        </mxCell>
        <mxCell id="KjFhffDNLPdM9jSf3J92-1" value="" style="swimlane;horizontal=0;whiteSpace=wrap;html=1;" vertex="1" parent="1">
          <mxGeometry x="1260" y="311" width="180" height="70" as="geometry" />
        </mxCell>
        <mxCell id="KjFhffDNLPdM9jSf3J92-2" value="Akun_mahasiswa" style="text;html=1;align=center;verticalAlign=middle;resizable=0;points=[];autosize=1;strokeColor=none;fillColor=none;" vertex="1" parent="KjFhffDNLPdM9jSf3J92-1">
          <mxGeometry x="40" y="20" width="120" height="30" as="geometry" />
        </mxCell>
        <mxCell id="9P8PGXi3Jgs_4HarJCBv-2" style="edgeStyle=orthogonalEdgeStyle;rounded=0;orthogonalLoop=1;jettySize=auto;html=1;exitX=0;exitY=0.75;exitDx=0;exitDy=0;" edge="1" parent="1" source="KjFhffDNLPdM9jSf3J92-1">
          <mxGeometry relative="1" as="geometry">
            <mxPoint x="1120" y="362" as="targetPoint" />
          </mxGeometry>
        </mxCell>
        <mxCell id="9P8PGXi3Jgs_4HarJCBv-4" value="Info registrasi" style="edgeLabel;html=1;align=center;verticalAlign=middle;resizable=0;points=[];" vertex="1" connectable="0" parent="9P8PGXi3Jgs_4HarJCBv-2">
          <mxGeometry x="0.1028" relative="1" as="geometry">
            <mxPoint as="offset" />
          </mxGeometry>
        </mxCell>
        <mxCell id="9P8PGXi3Jgs_4HarJCBv-8" style="edgeStyle=orthogonalEdgeStyle;rounded=0;orthogonalLoop=1;jettySize=auto;html=1;entryX=0.985;entryY=0.664;entryDx=0;entryDy=0;entryPerimeter=0;" edge="1" parent="1" source="KjFhffDNLPdM9jSf3J92-1" target="ShQfBIvye3-BGlphU4lf-1">
          <mxGeometry relative="1" as="geometry">
            <Array as="points">
              <mxPoint x="1350" y="736" />
            </Array>
          </mxGeometry>
        </mxCell>
        <mxCell id="9P8PGXi3Jgs_4HarJCBv-9" value="info login" style="edgeLabel;html=1;align=center;verticalAlign=middle;resizable=0;points=[];" vertex="1" connectable="0" parent="9P8PGXi3Jgs_4HarJCBv-8">
          <mxGeometry x="-0.3588" y="1" relative="1" as="geometry">
            <mxPoint y="-1" as="offset" />
          </mxGeometry>
        </mxCell>
      </root>
    </mxGraphModel>
  </diagram>
  <diagram id="6jcm3ZIQkTW8pcbO8dOH" name="Page-4">
    <mxGraphModel dx="1467" dy="656" grid="1" gridSize="10" guides="1" tooltips="1" connect="1" arrows="1" fold="1" page="1" pageScale="1" pageWidth="2100" pageHeight="1000" math="0" shadow="0">
      <root>
        <mxCell id="0" />
        <mxCell id="1" parent="0" />
        <mxCell id="dJNv8DxcOTwBThTLGeyd-32" style="edgeStyle=orthogonalEdgeStyle;rounded=0;orthogonalLoop=1;jettySize=auto;html=1;entryX=0;entryY=0.5;entryDx=0;entryDy=0;" edge="1" parent="1" source="dJNv8DxcOTwBThTLGeyd-4" target="dJNv8DxcOTwBThTLGeyd-17">
          <mxGeometry relative="1" as="geometry" />
        </mxCell>
        <mxCell id="dJNv8DxcOTwBThTLGeyd-33" value="Data absensi" style="edgeLabel;html=1;align=center;verticalAlign=middle;resizable=0;points=[];" vertex="1" connectable="0" parent="dJNv8DxcOTwBThTLGeyd-32">
          <mxGeometry x="-0.3256" y="1" relative="1" as="geometry">
            <mxPoint as="offset" />
          </mxGeometry>
        </mxCell>
        <mxCell id="dJNv8DxcOTwBThTLGeyd-4" value="2.2&lt;br&gt;&lt;div&gt;Input Absensi&lt;/div&gt;" style="ellipse;whiteSpace=wrap;html=1;aspect=fixed;" vertex="1" parent="1">
          <mxGeometry x="850" y="50" width="250" height="250" as="geometry" />
        </mxCell>
        <mxCell id="dJNv8DxcOTwBThTLGeyd-30" style="edgeStyle=orthogonalEdgeStyle;rounded=0;orthogonalLoop=1;jettySize=auto;html=1;entryX=0;entryY=0.5;entryDx=0;entryDy=0;" edge="1" parent="1" source="dJNv8DxcOTwBThTLGeyd-7" target="dJNv8DxcOTwBThTLGeyd-4">
          <mxGeometry relative="1" as="geometry" />
        </mxCell>
        <mxCell id="dJNv8DxcOTwBThTLGeyd-31" value="Scan QR" style="edgeLabel;html=1;align=center;verticalAlign=middle;resizable=0;points=[];" vertex="1" connectable="0" parent="dJNv8DxcOTwBThTLGeyd-30">
          <mxGeometry x="-0.2079" y="-2" relative="1" as="geometry">
            <mxPoint as="offset" />
          </mxGeometry>
        </mxCell>
        <mxCell id="dJNv8DxcOTwBThTLGeyd-7" value="Mahasiswa" style="rounded=0;whiteSpace=wrap;html=1;" vertex="1" parent="1">
          <mxGeometry x="490" y="120" width="130" height="110" as="geometry" />
        </mxCell>
        <mxCell id="dJNv8DxcOTwBThTLGeyd-8" value="Admin" style="rounded=0;whiteSpace=wrap;html=1;" vertex="1" parent="1">
          <mxGeometry x="1490" y="290" width="130" height="110" as="geometry" />
        </mxCell>
        <mxCell id="dJNv8DxcOTwBThTLGeyd-26" style="edgeStyle=orthogonalEdgeStyle;rounded=0;orthogonalLoop=1;jettySize=auto;html=1;exitX=0.5;exitY=0;exitDx=0;exitDy=0;" edge="1" parent="1" source="dJNv8DxcOTwBThTLGeyd-11" target="dJNv8DxcOTwBThTLGeyd-7">
          <mxGeometry relative="1" as="geometry">
            <Array as="points">
              <mxPoint x="555" y="390" />
            </Array>
          </mxGeometry>
        </mxCell>
        <mxCell id="dJNv8DxcOTwBThTLGeyd-29" value="QR Code" style="edgeLabel;html=1;align=center;verticalAlign=middle;resizable=0;points=[];" vertex="1" connectable="0" parent="dJNv8DxcOTwBThTLGeyd-26">
          <mxGeometry x="-0.0071" y="-3" relative="1" as="geometry">
            <mxPoint x="-1" as="offset" />
          </mxGeometry>
        </mxCell>
        <mxCell id="dJNv8DxcOTwBThTLGeyd-11" value="2.1&lt;div&gt;Generate QR&lt;/div&gt;" style="ellipse;whiteSpace=wrap;html=1;aspect=fixed;" vertex="1" parent="1">
          <mxGeometry x="440" y="390" width="250" height="250" as="geometry" />
        </mxCell>
        <mxCell id="8jyOVsZ9c1QQuuaMleLh-1" style="edgeStyle=orthogonalEdgeStyle;rounded=0;orthogonalLoop=1;jettySize=auto;html=1;entryX=0.5;entryY=0;entryDx=0;entryDy=0;" edge="1" parent="1" source="dJNv8DxcOTwBThTLGeyd-17" target="dJNv8DxcOTwBThTLGeyd-24">
          <mxGeometry relative="1" as="geometry">
            <Array as="points">
              <mxPoint x="1370" y="330" />
              <mxPoint x="935" y="330" />
            </Array>
          </mxGeometry>
        </mxCell>
        <mxCell id="8jyOVsZ9c1QQuuaMleLh-2" value="rekap absensi" style="edgeLabel;html=1;align=center;verticalAlign=middle;resizable=0;points=[];" vertex="1" connectable="0" parent="8jyOVsZ9c1QQuuaMleLh-1">
          <mxGeometry x="-0.0658" y="2" relative="1" as="geometry">
            <mxPoint as="offset" />
          </mxGeometry>
        </mxCell>
        <mxCell id="8jyOVsZ9c1QQuuaMleLh-9" style="edgeStyle=orthogonalEdgeStyle;rounded=0;orthogonalLoop=1;jettySize=auto;html=1;entryX=0.5;entryY=0;entryDx=0;entryDy=0;" edge="1" parent="1" source="dJNv8DxcOTwBThTLGeyd-17" target="dJNv8DxcOTwBThTLGeyd-8">
          <mxGeometry relative="1" as="geometry" />
        </mxCell>
        <mxCell id="8jyOVsZ9c1QQuuaMleLh-10" value="data absensi" style="edgeLabel;html=1;align=center;verticalAlign=middle;resizable=0;points=[];" vertex="1" connectable="0" parent="8jyOVsZ9c1QQuuaMleLh-9">
          <mxGeometry x="-0.5048" y="1" relative="1" as="geometry">
            <mxPoint as="offset" />
          </mxGeometry>
        </mxCell>
        <mxCell id="dJNv8DxcOTwBThTLGeyd-17" value="" style="swimlane;horizontal=0;whiteSpace=wrap;html=1;" vertex="1" parent="1">
          <mxGeometry x="1275" y="140" width="180" height="70" as="geometry" />
        </mxCell>
        <mxCell id="dJNv8DxcOTwBThTLGeyd-18" value="data_absensi" style="text;html=1;align=center;verticalAlign=middle;resizable=0;points=[];autosize=1;strokeColor=none;fillColor=none;" vertex="1" parent="dJNv8DxcOTwBThTLGeyd-17">
          <mxGeometry x="55" y="20" width="90" height="30" as="geometry" />
        </mxCell>
        <mxCell id="8jyOVsZ9c1QQuuaMleLh-7" style="edgeStyle=orthogonalEdgeStyle;rounded=0;orthogonalLoop=1;jettySize=auto;html=1;entryX=0.75;entryY=1;entryDx=0;entryDy=0;" edge="1" parent="1" source="dJNv8DxcOTwBThTLGeyd-23" target="dJNv8DxcOTwBThTLGeyd-17">
          <mxGeometry relative="1" as="geometry">
            <Array as="points">
              <mxPoint x="1410" y="370" />
              <mxPoint x="1410" y="370" />
            </Array>
          </mxGeometry>
        </mxCell>
        <mxCell id="8jyOVsZ9c1QQuuaMleLh-8" value="data&lt;div&gt;absensi&lt;/div&gt;" style="edgeLabel;html=1;align=center;verticalAlign=middle;resizable=0;points=[];" vertex="1" connectable="0" parent="8jyOVsZ9c1QQuuaMleLh-7">
          <mxGeometry x="-0.3266" y="4" relative="1" as="geometry">
            <mxPoint as="offset" />
          </mxGeometry>
        </mxCell>
        <mxCell id="dJNv8DxcOTwBThTLGeyd-23" value="2.3&lt;div&gt;Edit absensi&lt;/div&gt;" style="ellipse;whiteSpace=wrap;html=1;aspect=fixed;" vertex="1" parent="1">
          <mxGeometry x="1210" y="410" width="250" height="250" as="geometry" />
        </mxCell>
        <mxCell id="dJNv8DxcOTwBThTLGeyd-25" style="edgeStyle=orthogonalEdgeStyle;rounded=0;orthogonalLoop=1;jettySize=auto;html=1;entryX=1;entryY=0.5;entryDx=0;entryDy=0;" edge="1" parent="1" source="dJNv8DxcOTwBThTLGeyd-24" target="dJNv8DxcOTwBThTLGeyd-11">
          <mxGeometry relative="1" as="geometry" />
        </mxCell>
        <mxCell id="dJNv8DxcOTwBThTLGeyd-27" value="Request qr" style="edgeLabel;html=1;align=center;verticalAlign=middle;resizable=0;points=[];" vertex="1" connectable="0" parent="dJNv8DxcOTwBThTLGeyd-25">
          <mxGeometry x="-0.183" y="2" relative="1" as="geometry">
            <mxPoint as="offset" />
          </mxGeometry>
        </mxCell>
        <mxCell id="8jyOVsZ9c1QQuuaMleLh-3" style="edgeStyle=orthogonalEdgeStyle;rounded=0;orthogonalLoop=1;jettySize=auto;html=1;entryX=0;entryY=0.5;entryDx=0;entryDy=0;" edge="1" parent="1" source="dJNv8DxcOTwBThTLGeyd-24" target="dJNv8DxcOTwBThTLGeyd-23">
          <mxGeometry relative="1" as="geometry">
            <Array as="points">
              <mxPoint x="1040" y="535" />
              <mxPoint x="1040" y="535" />
            </Array>
          </mxGeometry>
        </mxCell>
        <mxCell id="8jyOVsZ9c1QQuuaMleLh-4" value="data baru absensi" style="edgeLabel;html=1;align=center;verticalAlign=middle;resizable=0;points=[];" vertex="1" connectable="0" parent="8jyOVsZ9c1QQuuaMleLh-3">
          <mxGeometry x="0.5577" y="2" relative="1" as="geometry">
            <mxPoint x="-53" y="2" as="offset" />
          </mxGeometry>
        </mxCell>
        <mxCell id="dJNv8DxcOTwBThTLGeyd-24" value="Dosen" style="rounded=0;whiteSpace=wrap;html=1;" vertex="1" parent="1">
          <mxGeometry x="870" y="460" width="130" height="110" as="geometry" />
        </mxCell>
      </root>
    </mxGraphModel>
  </diagram>
  <diagram id="rKtx4XUXwGnfPWimpG35" name="Page-5">
    <mxGraphModel dx="1027" dy="459" grid="1" gridSize="10" guides="1" tooltips="1" connect="1" arrows="1" fold="1" page="1" pageScale="1" pageWidth="2100" pageHeight="1000" math="0" shadow="0">
      <root>
        <mxCell id="0" />
        <mxCell id="1" parent="0" />
        <mxCell id="bcCWIDD8RRRV_2CRv6B0-7" style="edgeStyle=orthogonalEdgeStyle;rounded=0;orthogonalLoop=1;jettySize=auto;html=1;entryX=0;entryY=0.5;entryDx=0;entryDy=0;" edge="1" parent="1" source="bcCWIDD8RRRV_2CRv6B0-2" target="bcCWIDD8RRRV_2CRv6B0-4">
          <mxGeometry relative="1" as="geometry" />
        </mxCell>
        <mxCell id="bcCWIDD8RRRV_2CRv6B0-2" value="Mahasiswa" style="whiteSpace=wrap;html=1;align=center;" vertex="1" parent="1">
          <mxGeometry x="460" y="260" width="100" height="40" as="geometry" />
        </mxCell>
        <mxCell id="bcCWIDD8RRRV_2CRv6B0-10" style="edgeStyle=orthogonalEdgeStyle;rounded=0;orthogonalLoop=1;jettySize=auto;html=1;entryX=1;entryY=0.5;entryDx=0;entryDy=0;" edge="1" parent="1" source="bcCWIDD8RRRV_2CRv6B0-3" target="bcCWIDD8RRRV_2CRv6B0-4">
          <mxGeometry relative="1" as="geometry" />
        </mxCell>
        <mxCell id="bcCWIDD8RRRV_2CRv6B0-3" value="Dosen" style="whiteSpace=wrap;html=1;align=center;" vertex="1" parent="1">
          <mxGeometry x="1600" y="260" width="100" height="40" as="geometry" />
        </mxCell>
        <mxCell id="bcCWIDD8RRRV_2CRv6B0-13" style="edgeStyle=orthogonalEdgeStyle;rounded=0;orthogonalLoop=1;jettySize=auto;html=1;entryX=0.5;entryY=0;entryDx=0;entryDy=0;" edge="1" parent="1" source="bcCWIDD8RRRV_2CRv6B0-4" target="bcCWIDD8RRRV_2CRv6B0-6">
          <mxGeometry relative="1" as="geometry" />
        </mxCell>
        <mxCell id="bcCWIDD8RRRV_2CRv6B0-4" value="QR Code" style="whiteSpace=wrap;html=1;align=center;" vertex="1" parent="1">
          <mxGeometry x="990" y="260" width="100" height="40" as="geometry" />
        </mxCell>
        <mxCell id="bcCWIDD8RRRV_2CRv6B0-6" value="Absensi" style="whiteSpace=wrap;html=1;align=center;" vertex="1" parent="1">
          <mxGeometry x="990" y="480" width="100" height="40" as="geometry" />
        </mxCell>
        <mxCell id="bcCWIDD8RRRV_2CRv6B0-8" value="m" style="text;html=1;align=center;verticalAlign=middle;resizable=0;points=[];autosize=1;strokeColor=none;fillColor=none;" vertex="1" parent="1">
          <mxGeometry x="555" y="238" width="30" height="30" as="geometry" />
        </mxCell>
        <mxCell id="bcCWIDD8RRRV_2CRv6B0-9" value="1" style="text;html=1;align=center;verticalAlign=middle;resizable=0;points=[];autosize=1;strokeColor=none;fillColor=none;" vertex="1" parent="1">
          <mxGeometry x="965" y="248" width="30" height="30" as="geometry" />
        </mxCell>
        <mxCell id="bcCWIDD8RRRV_2CRv6B0-11" value="1" style="text;html=1;align=center;verticalAlign=middle;resizable=0;points=[];autosize=1;strokeColor=none;fillColor=none;" vertex="1" parent="1">
          <mxGeometry x="1565" y="248" width="30" height="30" as="geometry" />
        </mxCell>
        <mxCell id="bcCWIDD8RRRV_2CRv6B0-12" value="1" style="text;html=1;align=center;verticalAlign=middle;resizable=0;points=[];autosize=1;strokeColor=none;fillColor=none;" vertex="1" parent="1">
          <mxGeometry x="1085" y="238" width="30" height="30" as="geometry" />
        </mxCell>
        <mxCell id="bcCWIDD8RRRV_2CRv6B0-14" value="1" style="text;html=1;align=center;verticalAlign=middle;resizable=0;points=[];autosize=1;strokeColor=none;fillColor=none;" vertex="1" parent="1">
          <mxGeometry x="1045" y="298" width="30" height="30" as="geometry" />
        </mxCell>
        <mxCell id="bcCWIDD8RRRV_2CRv6B0-15" value="m" style="text;html=1;align=center;verticalAlign=middle;resizable=0;points=[];autosize=1;strokeColor=none;fillColor=none;" vertex="1" parent="1">
          <mxGeometry x="1055" y="458" width="30" height="30" as="geometry" />
        </mxCell>
      </root>
    </mxGraphModel>
  </diagram>
</mxfile>
